<?xml version="1.0" encoding="iso-8859-1"?>
<!-- Generator: Adobe Illustrator 16.0.0, SVG Export Plug-In . SVG Version: 6.00 Build 0)  -->
<!DOCTYPE svg PUBLIC "-//W3C//DTD SVG 1.1//EN" "http://www.w3.org/Graphics/SVG/1.1/DTD/svg11.dtd">
<svg version="1.1" id="Capa_1" xmlns="http://www.w3.org/2000/svg" xmlns:xlink="http://www.w3.org/1999/xlink" x="0px" y="0px"
	 width="28.703px" height="29.121px" viewBox="0 0 28.703 29.121" style="enable-background:new 0 0 28.703 29.121;"
	 xml:space="preserve">
<path style="fill:#000000;" d="M21.498,6.146c1.116,0,2.02-0.898,2.02-2.016V2.02c0-1.119-0.903-2.02-2.02-2.02
	c-1.117,0-2.019,0.9-2.019,2.02v2.111C19.479,5.248,20.381,6.146,21.498,6.146z"/>
<path style="fill:#000000;" d="M28.674,3.494h-4.066v1.027c0,1.695-1.377,3.076-3.075,3.076c-1.7,0-3.074-1.381-3.074-3.076V3.494
	h-8.205v1.027c0,1.695-1.379,3.076-3.076,3.076S4.103,6.217,4.103,4.521V3.494L0,3.443v25.678h2.051h24.604l2.049-0.006
	L28.674,3.494z M26.654,27.076H2.051V10.672h24.604V27.076z"/>
<path style="fill:#000000;" d="M7.146,6.146c1.116,0,2.021-0.898,2.021-2.016V2.02C9.166,0.9,8.262,0,7.146,0S5.128,0.9,5.128,2.02
	v2.111C5.128,5.248,6.029,6.146,7.146,6.146z"/>
<rect x="10.26" y="12.873" style="fill:#000000;" width="3.231" height="2.852"/>
<rect x="15.483" y="12.873" style="fill:#000000;" width="3.234" height="2.852"/>
<rect x="20.329" y="12.873" style="fill:#000000;" width="3.231" height="2.852"/>
<rect x="10.26" y="17.609" style="fill:#000000;" width="3.231" height="2.85"/>
<rect x="15.483" y="17.609" style="fill:#000000;" width="3.234" height="2.85"/>
<rect x="20.329" y="17.609" style="fill:#000000;" width="3.231" height="2.85"/>
<rect x="10.26" y="22.439" style="fill:#000000;" width="3.231" height="2.85"/>
<rect x="5.128" y="17.609" style="fill:#000000;" width="3.229" height="2.85"/>
<rect x="5.128" y="22.439" style="fill:#000000;" width="3.229" height="2.85"/>
<rect x="15.483" y="22.439" style="fill:#000000;" width="3.234" height="2.85"/>
<rect x="20.329" y="22.439" style="fill:#000000;" width="3.231" height="2.85"/>
<g>
</g>
<g>
</g>
<g>
</g>
<g>
</g>
<g>
</g>
<g>
</g>
<g>
</g>
<g>
</g>
<g>
</g>
<g>
</g>
<g>
</g>
<g>
</g>
<g>
</g>
<g>
</g>
<g>
</g>
</svg>
