<?xml version="1.0" encoding="iso-8859-1"?>
<!-- Generator: Adobe Illustrator 17.1.0, SVG Export Plug-In . SVG Version: 6.00 Build 0)  -->
<!DOCTYPE svg PUBLIC "-//W3C//DTD SVG 1.1//EN" "http://www.w3.org/Graphics/SVG/1.1/DTD/svg11.dtd">
<svg version="1.1" id="Layer_1" xmlns="http://www.w3.org/2000/svg" xmlns:xlink="http://www.w3.org/1999/xlink" x="0px" y="0px"
	 viewBox="0 0 128 128" style="enable-background:new 0 0 128 128;" xml:space="preserve">
<g fill="#34495e">
	<path d="M104,67.048C101.447,66.368,98.767,66,96,66c-0.335,0-0.667,0.015-1,0.025C78.51,66.549,65.276,79.945,65.013,96.5
		C65.01,96.667,65,96.832,65,97c0,3.315,0.526,6.505,1.489,9.5C70.501,118.972,82.194,128,96,128c17.121,0,31-13.879,31-31
		C127,82.646,117.242,70.576,104,67.048z M96,117.5c-11.322,0-20.5-9.178-20.5-20.5S84.678,76.5,96,76.5s20.5,9.178,20.5,20.5
		S107.322,117.5,96,117.5z"/>
	<polygon points="99,83 92,83 92,94 81,94 81,101 92,101 92,112 99,112 99,101 110,101 110,94 99,94 	"/>
	<path d="M26,23.5c1.93,0,3.5-1.57,3.5-3.5v-8.5v-8C29.5,1.57,27.93,0,26,0h-3c-1.93,0-3.5,1.57-3.5,3.5v8V20
		c0,1.93,1.57,3.5,3.5,3.5H26z"/>
	<path d="M81,23.5c1.93,0,3.5-1.57,3.5-3.5v-8.5v-8C84.5,1.57,82.93,0,81,0h-3c-1.93,0-3.5,1.57-3.5,3.5v8V20
		c0,1.93,1.57,3.5,3.5,3.5H81z"/>
	<path d="M57,103.5c-0.488-2.426-0.747-4.933-0.747-7.5c0-0.841,0.037-1.673,0.091-2.5H15c-3.314,0-6-2.686-6-6v-48h86v18.553
		C95.662,58.019,96.329,58,97,58c2.392,0,4.729,0.232,7,0.657V19.5c0-4.418-3.582-8-8-8h-6.5V20c0,4.687-3.813,8.5-8.5,8.5h-3
		c-4.687,0-8.5-3.813-8.5-8.5v-8.5h-35V20c0,4.687-3.813,8.5-8.5,8.5h-3c-4.687,0-8.5-3.813-8.5-8.5v-8.5H8c-4.418,0-8,3.582-8,8v76
		c0,4.418,3.582,8,8,8H57z"/>
	<circle cx="28.188" cy="54.5" r="7.938"/>
	<circle cx="52" cy="54.5" r="7.938"/>
	<circle cx="75.812" cy="54.5" r="7.938"/>
	<circle cx="52" cy="78.5" r="7.938"/>
	<circle cx="28.188" cy="78.5" r="7.938"/>
</g>
</svg>
