<?xml version="1.0" encoding="UTF-8" standalone="no"?>
<svg width="1020" height="630" xmlns="http://www.w3.org/2000/svg" xmlns:svg="http://www.w3.org/2000/svg" xmlns:xlink="http://www.w3.org/1999/xlink" version="1.1">
	<defs>
		<!-- logo -->
		<g id="logo" stroke="#000" stroke-width="3" fill="#000">
			<circle cx="512" cy="512" r="128" fill="#1abc9c" />
			<circle cx="892" cy="512" r="128" fill="#1abc9c" />
			<circle cx="702" cy="841" r="128" fill="#1abc9c" />
			<circle cx="322" cy="841" r="128" />
			<circle cx="132" cy="512" r="128" />
			<circle cx="322" cy="183" r="128" />
			<circle cx="702" cy="183" r="128" />
		</g>
		<!-- identical body parts -->
		<path id="shirt" stroke-width="3"
		  d="m 0,0 c -27.84,0.79 -49.67,46.38 -39.37,61.84 10.29,15.46 70.72,15.46 80.56,0 9.85,-15.46 -12.44,-62.65 -41.19,-61.84 z" />
		<path id="collar-girl" fill="#fff" stroke-width="3"
		  d="m -21,9 h 46.4 c 0,0 0.74,46.1 -15.8,46.1 -15.55,0 -30.6,-46.1 -30.6,-46.1 z" />
		<path id="face" fill="#fca" stroke-width="5"
		  d="m -6,90 a 46.59,46.59 0 1 1 0,-0.38"
		  transform="matrix(0.74318,0,0,0.82978,41.28,-85.187)" />
		<path id="tie" fill="#ff8080" stroke-width="3"
		  d="m -1,27 6.9,7.16 -3.9,23.1 16.97,9.76 6.35,-15.47 -12.06,-18.56 2.55,-9.7 -16.81,3.71 z" />
		<!-- hair styles -->
		<path id="hair-long-girl" fill="#666" stroke-width="4"
		  d="m -20,-25 c 0,0 14.75,17.02 31.28,15.69 16.55,-1.33 33.1,-9.04 33.1,-9.04 0,0 0.92,-49.24 -42.62,-50.01 -29.87,-0.54 -41.87,17.33 -47.57,50.01 -5.77,33.02 13.49,59.64 13.49,59.64 0,0 5.15,-18.01 9.06,-32.78 3.91,-14.76 3.26,-33.51 3.26,-33.51 z" />
		<path id="hair-short-girl" stroke-width="4"
		  d="m -10,-20 c 0,0 16.1,17.02 32.63,15.7 16.56,-1.33 27.71,-9.05 27.71,-9.05 0,0 -8.54,-46.54 -46.68,-47.31 -29.86,-0.62 -44.56,28.04 -48.92,47.31 -4.42,19.52 1.64,19.45 8.09,17.78 6.45,-1.66 27.17,-24.43 27.17,-24.43 z" />
		<path id="hair-short-boy" fill="#ffec00" stroke-width="4"
		  d="m -20,-30 c 0,0 13.92,12.29 29.51,11.33 15.61,-0.96 31.22,-6.53 31.22,-6.53 0,0 0.86,-35.56 -40.2,-36.11 -28.17,-0.39 -39.49,12.51 -44.87,36.11 -5.43,23.85 9.59,37.85 9.59,37.85 0,0 7.99,-7.78 11.68,-18.44 3.69,-10.67 3.07,-24.21 3.07,-24.21 z" />
		<g id="hair-hear-boy">
			<path fill="#918a6f" stroke-width="4"
			  d="m -12,-32 c 0,0 13.33,14.16 28.19,14.16 13.99,0 27.62,-10.23 27.62,-10.23 0,0 -7.11,-28.44 -29.78,-30.97 -22.63,-2.53 -48.85,3.93 -56.15,29.63 -7.4,26.01 12.21,43.52 12.21,43.52 l 6.13,-27.12 8.16,0.21 3.62,-19.2 z" />
			<path fill="#fca" stroke-width="4"
			  d="m -16,-10 c -2.84,-8.05 -12.39,-5.31 -12.92,3.6 -0.61,10.16 12.08,11.88 12.08,11.88" />
		</g>
		<!-- hands -->
		<path id="hand-fingers-v" fill="#fca" stroke-width="3"
		  d="m 44,35 c 1.64,-5.04 4.59,-17.33 9.03,-16.58 4.12,0.69 2.65,11.05 -0.41,16.73 6.44,1.25 8.1,7.61 8.1,11.14 0,7.08 -7.52,10.96 -15.87,10.96 -8.35,0 -15.13,-5.74 -15.13,-12.82 v -0.1 c 0.04,-4.18 2.44,-7.89 6.12,-10.2 -0.15,-5.26 -3.51,-16.69 1.82,-16.5 5.86,0.21 6.17,11.88 6.34,17.37 z" />
		<path id="hand-fist" fill="#fca" stroke-width="3"
		  d="m 55,35 c 4.22,5.67 2.21,14.33 -4.49,19.31 -6.7,4.98 -15.57,4.42 -19.79,-1.25 l -0.06,-0.09 c -2.46,-3.38 -2.91,-17.88 1.48,-20.91 4.83,-3.33 18.64,-2.74 22.86,2.94 z" />
		<path id="hand-thumb" fill="#fca" stroke-width="3"
		  d="m 43,35 c 8.9,-1.94 14.91,1.41 14.91,8.49 0,7.07 -0.69,12.71 -13.86,12.48 -12.25,-0.22 -12.12,-7.85 -12.12,-14.92 v -0.1 c 0.04,-4.19 0.47,-20.52 7.2,-20.36 7.21,0.18 6.22,5.66 3.87,14.41 z" />
		<path id="hand-palm" fill="#ffccaa" stroke-width="3"
		  d="m 30,38 c 3.16,-0.58 5.84,-21.68 19.47,-17.95 13.91,3.82 8.86,16.82 6.18,24.15 -2.5,6.86 -8.38,18.08 -21.44,13.72 -11.35,-3.79 -17.89,-24.54 -12.73,-25.79 5.44,-1.32 5.36,6.44 8.52,5.87 z" />
		<!-- arrow heads -->
		<marker orient="auto" refY="0.0" refX="0.0" id="arrow" overflow="visible" stroke="#35495d" fill="#35495d">
			<path style="stroke-width:0.625;stroke-linejoin:round;"
			  d="M 8.7185878,4.0337352 L -2.2072895,0.016013256 L 8.7185884,-4.0017078 C 6.9730900,-1.6296469 6.9831476,1.6157441 8.7185878,4.0337352 z"
			  transform="scale(0.3) rotate(180) translate(-2.3,0)" />
		</marker>
	</defs>
	<g transform="translate(58,310)" stroke="#383838">
		<use xlink:href="#shirt" fill="#5fbcd3" />
		<use xlink:href="#collar-girl" />
		<use xlink:href="#face" />
		<use xlink:href="#hair-long-girl" />
		<use xlink:href="#hand-fingers-v" />
	</g>
	<g stroke-width="3">
		<ellipse cx="170" cy="90" rx="150" ry="80" fill="#fff" stroke="#000" />
		<ellipse cx="136" cy="196" rx="24" ry="14" fill="#fff" stroke="#000" />
		<ellipse cx="105" cy="226" rx="14" ry="9" fill="#fff" stroke="#000" />
		<text font-size="28" font-family="Comic Sans MS" text-anchor="middle">
			<tspan x="170" y="72">Let's play soccer!</tspan>
			<tspan x="170" y="114">We need at least</tspan>
			<tspan x="170" y="150">4 people…</tspan>
		</text>
	</g>
	<use xlink:href="#logo" transform="translate(225,280) scale(0.1)" />
	<use xlink:href="#logo" transform="translate(672,280) scale(0.1)" />
	<g id="friends" transform="translate(490,0)">
		<g transform="translate(0,70)" stroke="#383838">
			<use xlink:href="#shirt" fill="#ff8080" />
			<use xlink:href="#collar-girl" />
			<use xlink:href="#face" />
			<use xlink:href="#hair-short-girl" fill="#ee8d2a" />
			<use xlink:href="#hand-fist" />
		</g>
		<g transform="translate(0,230)" stroke="#383838">
			<use xlink:href="#shirt" fill="#e5ff80" />
			<use xlink:href="#face" />
			<use xlink:href="#hair-short-boy" />
			<use xlink:href="#hand-palm" />
		</g>
		<g transform="translate(0,390)" stroke="#383838">
			<use xlink:href="#shirt" fill="#fff" />
			<use xlink:href="#tie" />
			<use xlink:href="#face" />
			<use xlink:href="#hair-hear-boy" />
			<use xlink:href="#hand-fist" />
		</g>
		<g transform="translate(0,550)" stroke="#383838">
			<use xlink:href="#shirt" fill="#ffb5ff" />
			<use xlink:href="#collar-girl" />
			<use xlink:href="#face" />
			<use xlink:href="#hair-short-girl" fill="#d38d5f" />
			<use xlink:href="#hand-thumb" />
		</g>
	</g>
	<use xlink:href="#friends" transform="translate(460,0)" />
	<g marker-end="url(#arrow)" stroke="#35495d" stroke-width="8">
		<line x1="140" y1="331" x2="200" y2="331" />
		<g id="fan-out">
			<line x1="320" y1="262" x2="400" y2="131" />
			<line x1="350" y1="306" x2="400" y2="281" />
			<line x1="350" y1="356" x2="400" y2="381" />
			<line x1="320" y1="396" x2="400" y2="531" />
		</g>
		<g>
			<line x1="580" y1="131" x2="670" y2="262" />
			<line x1="580" y1="381" x2="640" y2="356" />
			<line x1="580" y1="531" x2="670" y2="396" />
		</g>
		<g fill="#32ce77" font-size="48" stroke="none">
			<text x="560" y="120">✔︎</text>
			<text x="560" y="370">✔︎</text>
			<text x="560" y="570">✔︎</text>
		</g>
		<use xlink:href="#fan-out" transform="translate(450,0)" />
	</g>
</svg>
